# xmcd
#
# Track frame offsets:
#	150
#	54301
#	80317
#	99367
#	119718
#	138268
#	160708
#	174461
#	195446
#	215221
#	218558
#	245184
#
# Disc length: 3654 seconds
#
# Revision: 1
# Processed by: cddbd v1.5.1PL0 Copyright (c) Steve Scherf et al.
# Submitted via: CDex 1.50Beta5
#
DISCID=a60e440c
DTITLE=福間未紗 - フェスタ・マニフェスト
DYEAR=1999
DGENRE=
TTITLE0=砂時計
TTITLE1=ダークネス&スノウ
TTITLE2=フェスタ マニフェスト
TTITLE3=パルス
TTITLE4=ユリの丘
TTITLE5=おいしい水
TTITLE6=・・
TTITLE7=ソラリス
TTITLE8=円盤旅行
TTITLE9=fm
TTITLE10=オモイダス
TTITLE11=未来
EXTD=
EXTT0=
EXTT1=
EXTT2=
EXTT3=
EXTT4=
EXTT5=
EXTT6=
EXTT7=
EXTT8=
EXTT9=
EXTT10=
EXTT11=
PLAYORDER=
